<?xml version="1.0" standalone="no"?>
<!DOCTYPE svg PUBLIC "-//W3C//DTD SVG 20010904//EN"
 "http://www.w3.org/TR/2001/REC-SVG-20010904/DTD/svg10.dtd">
<svg version="1.0" xmlns="http://www.w3.org/2000/svg"
 width="487.000000pt" height="365.000000pt" viewBox="0 0 487.000000 365.000000"
 preserveAspectRatio="xMidYMid meet">
<metadata>
Created by potrace 1.15, written by Peter Selinger 2001-2017
</metadata>
<g transform="translate(0.000000,365.000000) scale(0.100000,-0.100000)"
fill="#000000" stroke="none">
<path d="M0 1825 l0 -1825 2435 0 2435 0 0 1825 0 1825 -2435 0 -2435 0 0
-1825z m2541 1598 c17 -15 38 -42 45 -60 16 -36 25 -40 44 -18 15 18 43 19 70
3 15 -10 26 -10 53 0 73 26 127 10 127 -39 l0 -30 26 20 c31 25 62 27 71 6 10
-28 57 -45 94 -35 19 6 38 10 42 10 12 0 37 -65 37 -95 0 -22 4 -25 38 -25 57
0 98 -30 119 -89 10 -28 23 -51 29 -51 21 0 64 -60 64 -90 0 -16 5 -32 10 -35
15 -9 12 -81 -4 -95 -8 -6 -49 -17 -91 -25 -42 -7 -78 -15 -79 -16 -2 -2 -8
-60 -14 -129 -12 -124 -61 -618 -82 -819 -6 -57 -9 -105 -7 -108 3 -2 85 36
183 86 l179 89 230 231 c126 127 238 231 247 231 11 0 18 7 18 18 0 10 31 48
68 85 l68 68 30 -16 c38 -19 94 -19 122 1 25 17 37 13 37 -14 0 -9 11 -19 25
-22 16 -4 25 -13 25 -25 0 -12 9 -21 25 -25 16 -4 26 -14 28 -27 2 -14 12 -23
25 -25 14 -2 23 -11 25 -25 2 -13 8 -24 13 -24 5 -1 14 -2 21 -3 7 0 15 -12
18 -26 4 -16 13 -25 25 -25 12 0 21 -9 25 -25 4 -16 13 -25 25 -25 12 0 21 -9
25 -25 4 -16 14 -26 27 -28 14 -2 23 -12 25 -25 2 -14 11 -23 26 -25 26 -4 27
-10 7 -48 -20 -39 -19 -73 4 -110 l19 -31 -67 -67 c-36 -36 -74 -66 -84 -66
-9 0 -17 -8 -17 -17 0 -10 -32 -50 -71 -89 l-71 -71 111 -143 c61 -78 111
-145 111 -149 0 -21 -135 -339 -150 -355 -18 -18 -24 -19 -81 -8 -34 6 -66 9
-70 6 -5 -3 -9 -129 -9 -280 l0 -274 -1840 0 -1840 0 0 264 0 264 -62 35
c-163 91 -321 278 -388 458 -73 198 -88 417 -40 590 23 84 84 217 131 285 107
157 290 294 469 354 205 68 421 65 625 -7 114 -40 173 -76 173 -106 0 -22 -2
-22 -82 19 -100 52 -195 81 -305 93 -128 14 -359 -12 -378 -42 -4 -7 1 -8 13
-3 47 18 223 37 289 31 107 -9 189 -26 173 -36 -9 -6 -4 -9 16 -9 21 0 27 -4
22 -15 -3 -9 0 -15 9 -15 8 0 15 -5 15 -11 0 -6 9 -21 20 -33 38 -41 70 -81
70 -88 0 -4 13 -29 29 -56 16 -27 32 -63 36 -80 3 -18 11 -34 16 -37 5 -4 9
-11 9 -16 0 -6 -5 -7 -12 -3 -7 5 -8 3 -4 -5 5 -8 26 -11 54 -10 38 3 48 0 50
-14 2 -11 -3 -17 -15 -17 -77 0 -188 -85 -219 -167 -21 -53 -15 -162 10 -212
44 -84 140 -141 238 -141 30 0 47 -4 43 -10 -10 -16 -82 -11 -142 10 -82 29
-149 98 -174 180 l-7 25 -1 -25 c-1 -38 42 -122 84 -163 21 -20 42 -37 46 -37
7 0 7 -24 0 -47 -3 -11 1 -17 13 -19 30 -4 104 -56 142 -99 l39 -46 11 37 c10
36 11 33 23 -63 12 -94 15 -101 37 -106 22 -4 24 -1 24 30 0 18 -11 138 -25
266 -24 231 -84 813 -108 1042 l-12 120 -55 8 c-30 4 -70 12 -88 18 -32 10
-33 13 -30 57 3 46 4 47 45 56 26 6 46 18 53 32 7 12 23 28 37 35 15 8 35 36
48 65 27 61 61 87 114 87 38 0 39 0 45 45 9 65 19 73 82 66 50 -6 54 -5 81 25
l29 31 37 -20 37 -20 0 25 c0 41 67 60 125 33 37 -17 90 10 109 57 15 36 15
36 65 29 66 -9 100 1 111 31 13 34 49 33 91 -2z"/>
<path d="M1745 2724 c5 -27 73 -765 110 -1184 8 -96 17 -190 20 -207 l6 -33
71 0 71 0 -8 142 c-4 78 -8 151 -10 163 -2 11 -6 63 -9 115 -16 245 -68 1015
-69 1017 -1 0 -44 4 -95 8 l-92 8 5 -29z"/>
<path d="M2909 2733 c0 -5 -2 -42 -4 -83 -3 -41 -12 -183 -20 -315 -34 -534
-45 -714 -50 -805 -3 -52 -8 -123 -11 -157 -5 -60 -4 -63 16 -63 13 0 20 5 17
13 -2 6 0 25 4 41 6 21 5 32 -4 38 -9 6 -9 10 2 17 10 6 12 21 7 55 -4 25 -4
46 1 46 4 0 9 33 11 73 4 98 11 167 18 179 4 6 0 14 -7 19 -12 8 -12 11 1 19
11 7 11 10 2 10 -9 0 -10 5 -2 19 5 11 11 72 12 135 2 64 5 116 9 116 3 0 11
91 18 203 7 111 15 220 17 242 6 45 13 132 14 156 0 13 14 18 55 24 30 3 55
11 55 16 0 11 -160 12 -161 2z"/>
<path d="M2123 2613 c3 -65 15 -368 27 -673 12 -305 24 -575 27 -599 l5 -43
71 5 c40 4 76 7 81 7 5 0 6 52 2 123 -3 67 -6 300 -6 517 0 217 -3 482 -7 588
l-6 192 -100 0 -100 0 6 -117z"/>
<path d="M2520 2538 c-1 -106 -5 -425 -10 -707 -5 -283 -7 -517 -5 -520 2 -4
39 -5 82 -3 l80 3 6 197 c6 175 24 634 43 1070 l6 152 -101 0 -101 0 0 -192z"/>
<path d="M952 2554 c-87 -43 -141 -129 -142 -228 0 -71 18 -121 63 -172 123
-140 329 -118 425 44 23 40 27 58 27 122 -1 90 -22 138 -89 197 -78 69 -190
84 -284 37z"/>
<path d="M3633 1928 c-178 -178 -326 -326 -329 -330 -4 -4 -1 -10 7 -13 9 -3
127 108 329 310 l315 315 235 -235 235 -235 -149 -149 c-116 -116 -144 -150
-131 -155 13 -4 57 34 173 150 l155 155 -254 255 c-139 140 -256 254 -259 254
-3 0 -150 -145 -327 -322z"/>
<path d="M425 2166 c-59 -27 -105 -70 -131 -123 -26 -53 -26 -173 0 -226 78
-158 288 -195 414 -74 57 54 77 102 77 187 0 57 -5 84 -22 115 -67 126 -215
179 -338 121z"/>
<path d="M675 1551 c-145 -37 -231 -185 -190 -326 13 -45 28 -69 68 -110 29
-28 62 -54 75 -57 22 -6 22 -6 22 118 l0 124 73 2 c39 1 115 1 168 -1 56 -2
99 1 103 7 3 5 -1 33 -10 62 -18 62 -81 135 -139 161 -48 21 -129 31 -170 20z"/>
<path d="M1338 1550 c-54 -14 -114 -54 -147 -100 -32 -44 -57 -128 -43 -142 5
-5 120 -8 258 -6 247 3 249 3 252 25 9 60 -76 177 -152 208 -45 19 -124 26
-168 15z"/>
<path d="M3096 1469 c-3 -34 -6 -92 -6 -128 l0 -67 148 -28 c81 -15 184 -35
229 -43 45 -9 88 -13 95 -10 13 4 114 225 107 231 -2 2 -49 12 -104 21 -55 9
-103 19 -106 21 -4 2 -42 9 -85 15 -44 6 -115 19 -159 30 -115 27 -111 29
-119 -42z"/>
<path d="M4292 1477 c-29 -29 -52 -55 -52 -59 0 -3 42 -13 93 -23 50 -9 103
-19 115 -22 21 -5 18 3 -30 75 -29 45 -58 82 -63 82 -6 0 -34 -24 -63 -53z"/>
<path d="M3933 1320 c4 -35 7 -94 7 -131 0 -63 2 -69 23 -73 27 -6 402 -77
437 -83 23 -4 28 4 75 113 28 64 51 119 53 123 1 4 -28 12 -65 19 -38 6 -156
27 -263 46 -107 19 -213 37 -234 41 l-39 8 6 -63z"/>
</g>
</svg>
